<svg width="24" height="24" viewBox="0 0 24 24" fill="none" xmlns="http://www.w3.org/2000/svg">
<path d="M5.41996 14.4656L4.59721 17.537L1.59008 17.6006C0.691392 15.9338 0.181641 14.0266 0.181641 12C0.181641 10.0403 0.658246 8.1922 1.50306 6.56494H1.50371L4.1809 7.05576L5.35366 9.71689C5.10821 10.4325 4.97442 11.2007 4.97442 12C4.97451 12.8675 5.13166 13.6987 5.41996 14.4656Z" fill="#FBBB00"/>
<path d="M23.6116 9.79218C23.7474 10.5071 23.8181 11.2454 23.8181 12C23.8181 12.8461 23.7292 13.6714 23.5597 14.4675C22.9844 17.1766 21.4811 19.5422 19.3987 21.2162L19.398 21.2156L16.026 21.0435L15.5487 18.0643C16.9305 17.2539 18.0104 15.9857 18.5793 14.4675H12.2598V9.79218H18.6715H23.6116Z" fill="#518EF8"/>
<path d="M19.3981 21.2156L19.3988 21.2163C17.3735 22.8442 14.8007 23.8182 12.0001 23.8182C7.49942 23.8182 3.58645 21.3026 1.59033 17.6007L5.42021 14.4656C6.41824 17.1293 8.98773 19.0254 12.0001 19.0254C13.2949 19.0254 14.5079 18.6754 15.5488 18.0643L19.3981 21.2156Z" fill="#28B446"/>
<path d="M19.5432 2.90259L15.7146 6.03699C14.6374 5.36364 13.364 4.97465 11.9997 4.97465C8.91916 4.97465 6.30162 6.95775 5.35358 9.71688L1.50358 6.56493H1.50293C3.46983 2.77273 7.43215 0.181824 11.9997 0.181824C14.8672 0.181824 17.4964 1.20327 19.5432 2.90259Z" fill="#F14336"/>
</svg>
